# xmcd
# Track frame offsets:
# 150
# 17567
# 31913
# 44597
# 56293
# 75739
# 99669
#
# Disc length: 1814 seconds
# Revision: 0
# Processed by: cddbd v1.4PL0 Copyright (c) Steve Scherf et al.
# Submitted via: VisiTrax 2.9.3.171 - For more info visit www.synapsa.com
#
DISCID=4c071407
DTITLE=Van Morrison - Too Long In Exile [Disc 2]
DYEAR=1900
DGENRE=
TTITLE0=Wasted Years
TTITLE1=The Lonesome Road
TTITLE2=Moody's Mood For Love
TTITLE3=Close Enough For Jazz
TTITLE4=Before The World Was Made
TTITLE5=I'll Take Care of You
TTITLE6=Instrumental/Tell Me What You Want
EXTD=
EXTT0=
EXTT1=
EXTT2=
EXTT3=
EXTT4=
EXTT5=
EXTT6=
PLAYORDER=
